<svg xmlns="http://www.w3.org/2000/svg" height="24" viewBox="0 -960 960 960" width="24"><path d="M170-114q-56.725 0-96.362-40.137Q34-194.275 34-250v-460q0-55.725 39.638-95.862Q113.275-846 170-846h620q56.725 0 96.362 40.138Q926-765.725 926-710v460q0 55.725-39.638 95.863Q846.725-114 790-114H170Zm310-287q10 0 18.375-2.5T516-412l251.11-163.082Q776-580 783-591.5t7-25.888q0-27.306-25.5-42.959Q739-676 713-659L480-508 247-659q-25-16-51-2t-26 44q0 15 7 26t16 16l251 163q9.25 6 17.625 8.5T480-401Z"/></svg>